# xmcd
#
# Track frame offsets:
#	150
#	21349
#	40638
#	62624
#	78187
#	94488
#	117965
#	134740
#	151977
#	167492
#	183655
#	201516
#	217446
#	235330
#	253229
#
# Disc length: 3771 seconds
#
# Revision: 0
# Processed by: cddbd v1.5.2PL0 Copyright (c) Steve Scherf et al.
# Submitted via: EasyCDDAExtractor 10.0.3.1
#
DISCID=e00eb90f
DTITLE=Various Artist - Club Hiphop 3rd(CD2)
DYEAR=2008
DGENRE=Hiphop
TTITLE0=Nicole Scherzinger - Baby Love
TTITLE1=Amy Winehouse - You Know I'm No Good
TTITLE2=Gwen Stefani(feat. Akon) - 4 in the Morning
TTITLE3=The Pussycat Dolls - Stickwitu
TTITLE4=Ms. Dynamite - Dy-Na-Mi-Tee
TTITLE5=Nelly Furtado - All Good Things
TTITLE6=K-Ci and Jojo - All My Life
TTITLE7=Dru Hill - How Deep is Your Love
TTITLE8=Ashanti - Foolish
TTITLE9=City High - Caramel
TTITLE10=Gym Class Heroes - Cupid's Chokehold
TTITLE11=Sugababes - About You Now
TTITLE12=Baby Bash - Suga Suga
TTITLE13=Boyz II Men - I'll Make Love to You
TTITLE14=Jodeci - Freek 'n You
EXTD=
EXTT0=
EXTT1=
EXTT2=
EXTT3=
EXTT4=
EXTT5=
EXTT6=
EXTT7=
EXTT8=
EXTT9=
EXTT10=
EXTT11=
EXTT12=
EXTT13=
EXTT14=
PLAYORDER=
